<?xml version="1.0" encoding="UTF-8" standalone="no"?><!-- Generator: Gravit.io --><svg xmlns="http://www.w3.org/2000/svg" xmlns:xlink="http://www.w3.org/1999/xlink" style="isolation:isolate" viewBox="473.925 460.384 607.926 264.312" width="607.926pt" height="264.312pt"><defs><clipPath id="_clipPath_SzBaJgoMf9Vtse6xZGKAtRonlYsg1TxO"><rect x="473.925" y="460.384" width="607.926" height="264.312"/></clipPath></defs><g clip-path="url(#_clipPath_SzBaJgoMf9Vtse6xZGKAtRonlYsg1TxO)"><path d=" M 614.425 527.848 Q 672.759 452.848 772.425 461.848 C 872.092 470.848 888.759 497.515 929.425 534.848 C 970.092 572.181 1036.019 636.223 1048.425 642.848 C 1060.832 649.473 1088.925 645.036 1079.425 669.848 C 1069.925 694.661 979.425 701.181 904.425 581.848 Q 862.759 558.515 816.425 560.848 C 770.092 563.181 696.675 554.098 687.425 551.848 C 680.971 550.278 670.05 576.348 669.425 585.848 C 668.8 595.348 670.925 602.848 663.425 610.848 C 655.925 618.848 652.175 621.473 646.425 621.848 C 640.675 622.223 640.175 611.348 640.425 602.848 C 640.675 594.348 638.925 589.223 635.425 583.848 C 631.925 578.473 618.425 564.348 616.425 559.848 Q 614.425 555.348 614.425 527.848 Z " fill="rgb(255,153,0)" vector-effect="non-scaling-stroke" stroke-width="1" stroke="rgb(0,0,0)" stroke-linejoin="round" stroke-linecap="round" stroke-miterlimit="3"/><path d=" M 619.425 527.848 C 602.613 527.098 595.738 538.536 589.425 540.848 C 583.113 543.161 578.425 544.786 580.425 547.848 C 582.425 550.911 599.613 551.223 603.425 553.848 L 619.425 544.848" fill="rgb(255,153,0)" vector-effect="non-scaling-stroke" stroke-width="1" stroke="rgb(0,0,0)" stroke-linejoin="round" stroke-linecap="round" stroke-miterlimit="3"/><path d=" M 585.425 546.848 Q 600.613 546.473 611.425 548.848" fill="none" vector-effect="non-scaling-stroke" stroke-width="1" stroke="rgb(0,0,0)" stroke-linejoin="round" stroke-linecap="round" stroke-miterlimit="3"/><path d=" M 642.425 526.848 C 619.05 526.286 595.175 559.223 601.425 558.848 C 607.675 558.473 623.675 552.723 628.425 552.848 C 633.175 552.973 635.425 555.661 640.425 555.848 Q 645.425 556.036 646.425 554.848" fill="rgb(255,153,0)" vector-effect="non-scaling-stroke" stroke-width="1" stroke="rgb(0,0,0)" stroke-linejoin="round" stroke-linecap="round" stroke-miterlimit="3"/><path d=" M 607.425 553.848 Q 619.175 545.161 639.425 546.848" fill="none" vector-effect="non-scaling-stroke" stroke-width="1" stroke="rgb(0,0,0)" stroke-linejoin="round" stroke-linecap="round" stroke-miterlimit="3"/><path d=" M 718.976 594.918 C 719.119 595.238 719.268 595.548 719.425 595.848 C 724.988 606.473 724.988 611.036 719.425 615.848 C 713.493 620.981 704.863 609.661 706.425 599.848 C 706.957 596.513 707.793 590.075 708.425 585.848 C 709.54 578.397 710.714 570.966 713.425 566.848 Q 714.711 564.896 721.425 559.848 L 758.425 557.848 Q 746.3 562.543 733.425 570.848 Q 721.874 578.299 718.976 594.918 Z " fill="rgb(255,153,0)" vector-effect="non-scaling-stroke" stroke-width="1" stroke="rgb(0,0,0)" stroke-linejoin="round" stroke-linecap="round" stroke-miterlimit="3"/><path d=" M 743.425 546.848 C 699.925 556.598 697.05 560.098 694.425 566.848 C 691.8 573.598 688.175 583.348 683.425 588.848 C 678.675 594.348 682.925 624.598 695.425 619.848 Q 707.925 615.098 698.425 597.848 Q 707.3 577.348 716.425 575.848 C 725.55 574.348 778.56 569.703 781.425 562.848 C 783.636 557.559 782.884 549.168 779.948 542.616" fill="rgb(255,153,0)" vector-effect="non-scaling-stroke" stroke-width="1" stroke="rgb(0,0,0)" stroke-linejoin="round" stroke-linecap="round" stroke-miterlimit="3"/><path d=" M 845.993 590.394 C 831.486 574.622 823.695 556.119 820.993 578.394 C 815.368 624.769 852.993 623.394 868.993 632.394 C 884.993 641.394 884.243 640.144 864.993 651.394 C 845.743 662.644 845.916 662.144 842.142 670.394 C 838.368 678.644 839.478 695.956 849.993 692.394 Q 860.84 688.719 856.993 674.394 Q 885.743 660.894 895.993 651.394 C 906.243 641.894 900.993 638.644 889.993 628.394 C 884.277 623.067 861.69 607.458 845.993 590.394 Z " fill="rgb(255,153,0)" vector-effect="non-scaling-stroke" stroke-width="1" stroke="rgb(0,0,0)" stroke-linejoin="round" stroke-linecap="round" stroke-miterlimit="3"/><path d=" M 833.425 539.848 C 807.613 558.723 810.675 580.098 835.425 599.848 C 860.175 619.598 870.238 626.786 861.425 628.848 C 852.613 630.911 839.988 630.504 835.425 633.848 C 830.863 637.192 817.988 659.004 827.425 663.848 C 836.863 668.692 849.3 657.286 845.425 647.848 Q 861.965 648.536 873.425 645.848 C 884.886 643.161 893.886 638.762 894.425 631.848 C 894.921 625.495 890.608 619.914 874.87 608.124 Q 875.145 607.988 875.425 607.848 C 890.175 600.473 906.175 591.598 906.425 570.848" fill="rgb(255,153,0)" vector-effect="non-scaling-stroke" stroke-width="1" stroke="rgb(0,0,0)" stroke-linejoin="round" stroke-linecap="round" stroke-miterlimit="3"/><g clip-path="url(#_clipPath_YKFG78WSC5YvoxMfRgdO7EE16E9TNzsT)"><text transform="matrix(1,0,0,1,473.925,678.376)" style="font-family:'Montserrat';font-weight:700;font-size:46px;font-style:normal;fill:#000000;stroke:none;">C H O P F O X</text></g><defs><clipPath id="_clipPath_YKFG78WSC5YvoxMfRgdO7EE16E9TNzsT"><rect x="0" y="0" width="331" height="90.848" transform="matrix(1,0,0,1,473.925,633.848)"/></clipPath></defs></g></svg>